<svg xmlns="http://www.w3.org/2000/svg" xmlns:xlink="http://www.w3.org/1999/xlink" width="500" zoomAndPan="magnify" viewBox="0 0 375 187.499995" height="250" preserveAspectRatio="xMidYMid meet" version="1.0"><defs><g/><clipPath id="7f3bc705b3"><path d="M 318 72 L 340.300781 72 L 340.300781 111 L 318 111 Z M 318 72 " clip-rule="nonzero"/></clipPath><clipPath id="9c3d480028"><path d="M 217.359375 92 L 272 92 L 272 114.695312 L 217.359375 114.695312 Z M 217.359375 92 " clip-rule="nonzero"/></clipPath><clipPath id="3cf36ddbe4"><path d="M 305 14.613281 L 325 14.613281 L 325 60 L 305 60 Z M 305 14.613281 " clip-rule="nonzero"/></clipPath><clipPath id="a8b821cad0"><path d="M 34.699219 126.890625 L 340.398438 126.890625 L 340.398438 172.285156 L 34.699219 172.285156 Z M 34.699219 126.890625 " clip-rule="nonzero"/></clipPath><clipPath id="307c2cf6b1"><path d="M 36.570312 126.890625 L 338.429688 126.890625 C 338.925781 126.890625 339.402344 127.089844 339.753906 127.441406 C 340.101562 127.789062 340.300781 128.265625 340.300781 128.761719 L 340.300781 170.414062 C 340.300781 170.910156 340.101562 171.386719 339.753906 171.738281 C 339.402344 172.089844 338.925781 172.285156 338.429688 172.285156 L 36.570312 172.285156 C 36.074219 172.285156 35.597656 172.089844 35.246094 171.738281 C 34.898438 171.386719 34.699219 170.910156 34.699219 170.414062 L 34.699219 128.761719 C 34.699219 128.265625 34.898438 127.789062 35.246094 127.441406 C 35.597656 127.089844 36.074219 126.890625 36.570312 126.890625 Z M 36.570312 126.890625 " clip-rule="nonzero"/></clipPath><clipPath id="ea50df338e"><path d="M 278.832031 80.152344 L 313.832031 80.152344 L 313.832031 115.15625 L 278.832031 115.15625 Z M 278.832031 80.152344 " clip-rule="nonzero"/></clipPath><clipPath id="6126d2ce7d"><path d="M 296.332031 80.152344 C 286.664062 80.152344 278.832031 87.988281 278.832031 97.65625 C 278.832031 107.320312 286.664062 115.15625 296.332031 115.15625 C 305.996094 115.15625 313.832031 107.320312 313.832031 97.65625 C 313.832031 87.988281 305.996094 80.152344 296.332031 80.152344 Z M 296.332031 80.152344 " clip-rule="nonzero"/></clipPath><clipPath id="d04871a8f0"><path d="M 151.179688 55.644531 L 168.851562 55.644531 L 168.851562 73.316406 L 151.179688 73.316406 Z M 151.179688 55.644531 " clip-rule="nonzero"/></clipPath><clipPath id="b3c1272b0c"><path d="M 160.015625 55.644531 C 155.132812 55.644531 151.179688 59.601562 151.179688 64.480469 C 151.179688 69.363281 155.132812 73.316406 160.015625 73.316406 C 164.894531 73.316406 168.851562 69.363281 168.851562 64.480469 C 168.851562 59.601562 164.894531 55.644531 160.015625 55.644531 Z M 160.015625 55.644531 " clip-rule="nonzero"/></clipPath></defs><path fill="#ffffff" d="M 331.84375 61.121094 C 331.6875 61.730469 331.265625 62.261719 330.648438 62.515625 L 328.390625 63.4375 C 328.390625 63.4375 328.386719 63.441406 328.386719 63.441406 L 321.785156 66.140625 C 321.5625 66.230469 321.332031 66.277344 321.097656 66.28125 C 321.023438 66.269531 320.945312 66.269531 320.867188 66.273438 C 320.664062 66.253906 320.460938 66.214844 320.261719 66.128906 C 319.765625 65.917969 319.375 65.519531 319.171875 65.007812 L 319.09375 64.8125 C 318.675781 63.761719 319.179688 62.5625 320.210938 62.136719 L 329.074219 58.511719 C 329.488281 58.34375 329.929688 58.324219 330.351562 58.445312 C 330.453125 58.507812 330.566406 58.546875 330.6875 58.570312 C 331.144531 58.792969 331.5 59.164062 331.691406 59.644531 L 331.765625 59.835938 C 331.847656 60.035156 331.882812 60.234375 331.898438 60.4375 C 331.894531 60.453125 331.886719 60.464844 331.886719 60.484375 Z M 331.84375 61.121094 " fill-opacity="1" fill-rule="nonzero"/><path fill="#ffffff" d="M 331.636719 64.257812 L 331.191406 71.035156 L 330.453125 70.355469 C 330.210938 70.128906 329.875 70.039062 329.550781 70.113281 L 329.441406 70.136719 L 329.703125 65.078125 L 331.414062 64.378906 C 331.492188 64.34375 331.558594 64.292969 331.636719 64.257812 Z M 331.636719 64.257812 " fill-opacity="1" fill-rule="nonzero"/><path fill="#ffffff" d="M 319.496094 24.988281 C 319.976562 24.5 320.378906 23.957031 320.691406 23.378906 L 326.425781 40.941406 L 325.195312 41.355469 Z M 319.496094 24.988281 " fill-opacity="1" fill-rule="nonzero"/><path fill="#ffffff" d="M 326.230469 57.503906 C 323.808594 50.253906 321.863281 42.238281 320.5625 34.167969 L 323.621094 42.960938 C 323.765625 43.375 324.15625 43.636719 324.570312 43.636719 C 324.679688 43.636719 324.789062 43.617188 324.894531 43.582031 L 325.582031 43.351562 L 329.460938 56.386719 C 329.070312 56.421875 328.6875 56.496094 328.3125 56.652344 Z M 326.230469 57.503906 " fill-opacity="1" fill-rule="nonzero"/><path fill="#ffffff" d="M 327.289062 70.621094 L 325.839844 66.65625 L 327.640625 65.917969 L 327.398438 70.597656 Z M 327.289062 70.621094 " fill-opacity="1" fill-rule="nonzero"/><path fill="#ffffff" d="M 325.308594 71.066406 L 323.332031 71.511719 L 322.242188 68.09375 C 322.34375 68.0625 322.449219 68.042969 322.546875 68.003906 L 323.976562 67.417969 Z M 325.308594 71.066406 " fill-opacity="1" fill-rule="nonzero"/><g clip-path="url(#7f3bc705b3)"><path fill="#ffffff" d="M 322.457031 94.222656 L 321.460938 73.996094 L 329.476562 72.191406 L 338.222656 80.253906 C 339.476562 81.414062 340.199219 83.066406 340.199219 84.792969 L 340.199219 95.539062 C 340.199219 97.242188 339.5 98.878906 338.28125 100.027344 C 335.277344 102.847656 331.90625 105.230469 328.269531 107.097656 C 325.152344 108.699219 321.859375 109.914062 318.453125 110.726562 C 319.710938 108.644531 320.691406 106.410156 321.378906 104.058594 C 322.316406 100.863281 322.675781 97.550781 322.457031 94.222656 Z M 326.695312 104.972656 C 326.765625 105.472656 327.195312 105.835938 327.6875 105.835938 C 327.734375 105.835938 327.785156 105.832031 327.832031 105.828125 C 328.382812 105.746094 328.765625 105.238281 328.6875 104.6875 C 328.050781 100.207031 327.703125 95.640625 327.65625 91.113281 C 327.605469 85.898438 327.953125 80.628906 328.6875 75.453125 C 328.765625 74.902344 328.382812 74.394531 327.832031 74.316406 C 327.285156 74.234375 326.773438 74.621094 326.695312 75.171875 C 325.945312 80.449219 325.589844 85.820312 325.644531 91.136719 C 325.691406 95.75 326.046875 100.40625 326.695312 104.972656 Z M 326.695312 104.972656 " fill-opacity="1" fill-rule="nonzero"/></g><path fill="#ffffff" d="M 253.234375 90.117188 L 225.136719 90.117188 C 223.773438 90.117188 222.660156 88.984375 222.660156 87.589844 L 222.660156 64.117188 L 228.964844 66.515625 L 228.964844 75.3125 C 228.964844 75.867188 229.414062 76.316406 229.96875 76.316406 L 254.867188 76.316406 L 255.707031 87.394531 C 255.761719 88.117188 255.523438 88.800781 255.035156 89.328125 C 254.5625 89.839844 253.921875 90.117188 253.234375 90.117188 Z M 253.234375 90.117188 " fill-opacity="1" fill-rule="nonzero"/><path fill="#ffffff" d="M 230.976562 65.824219 C 230.976562 65.40625 230.71875 65.03125 230.328125 64.882812 L 222.660156 61.964844 L 222.660156 26.132812 C 222.660156 24.738281 223.769531 23.605469 225.136719 23.605469 L 248.574219 23.605469 C 249.859375 23.605469 250.945312 24.628906 251.046875 25.9375 L 254.714844 74.304688 L 230.976562 74.304688 Z M 247.859375 29.324219 C 247.734375 27.90625 246.5625 26.816406 245.15625 26.816406 L 236.207031 26.816406 L 236.207031 51.0625 L 249.722656 51.0625 Z M 235.167969 71.09375 L 250.761719 71.09375 L 249.722656 56.335938 L 235.167969 56.335938 Z M 232.050781 26.816406 L 225.8125 26.816406 L 225.8125 51.0625 L 232.050781 51.0625 Z M 232.050781 26.816406 " fill-opacity="1" fill-rule="nonzero"/><path fill="#ffffff" d="M 259.078125 87.09375 L 259.078125 90.117188 L 256.945312 90.117188 C 257.503906 89.277344 257.789062 88.269531 257.710938 87.242188 L 257.699219 87.09375 Z M 259.078125 87.09375 " fill-opacity="1" fill-rule="nonzero"/><path fill="#ffffff" d="M 272.007812 39.710938 C 271.914062 39.777344 271.828125 39.859375 271.761719 39.957031 C 271.753906 39.964844 271.75 39.976562 271.746094 39.984375 C 271.703125 40.050781 271.667969 40.121094 271.640625 40.195312 L 270.371094 43.925781 L 269.277344 41.335938 C 268.941406 40.542969 269.265625 39.605469 270.015625 39.203125 L 285.324219 30.988281 L 272.042969 39.675781 C 272.027344 39.6875 272.023438 39.699219 272.007812 39.710938 Z M 272.007812 39.710938 " fill-opacity="1" fill-rule="nonzero"/><path fill="#ffffff" d="M 298.925781 26.089844 C 293.519531 31.277344 287.347656 35.101562 280.578125 37.460938 C 279.65625 37.785156 278.71875 38.066406 277.777344 38.332031 L 304.589844 20.789062 C 304.746094 21.640625 304.851562 22.523438 304.851562 23.417969 L 304.851562 23.984375 L 299.300781 25.863281 C 299.160156 25.910156 299.03125 25.988281 298.925781 26.089844 Z M 298.925781 26.089844 " fill-opacity="1" fill-rule="nonzero"/><path fill="#ffffff" d="M 264.308594 90.683594 C 263.285156 90.371094 262.203125 90.195312 261.089844 90.148438 L 261.089844 87.042969 C 261.519531 86.929688 261.84375 86.554688 261.84375 86.089844 L 261.84375 79.628906 C 261.84375 79.234375 261.609375 78.898438 261.273438 78.734375 L 261.996094 78.003906 L 264.308594 81.914062 Z M 264.308594 90.683594 " fill-opacity="1" fill-rule="nonzero"/><path fill="#ffffff" d="M 257.210938 80.636719 L 259.828125 80.636719 L 259.828125 85.082031 L 257.550781 85.082031 Z M 257.210938 80.636719 " fill-opacity="1" fill-rule="nonzero"/><path fill="#ffffff" d="M 266.320312 86.683594 L 266.320312 82.914062 C 266.976562 83.28125 267.429688 83.984375 267.429688 84.800781 C 267.429688 85.613281 266.976562 86.316406 266.320312 86.683594 Z M 266.320312 86.683594 " fill-opacity="1" fill-rule="nonzero"/><path fill="#ffffff" d="M 265.925781 80.691406 L 264.433594 78.171875 L 275.359375 49.960938 L 278.425781 49.960938 L 266.957031 80.980469 C 266.632812 80.835938 266.285156 80.746094 265.925781 80.691406 Z M 265.925781 80.691406 " fill-opacity="1" fill-rule="nonzero"/><path fill="#ffffff" d="M 229.667969 95.292969 L 259.378906 95.292969 C 261.515625 95.292969 263.457031 96.136719 264.898438 97.5 L 224.152344 97.5 C 225.59375 96.136719 227.53125 95.292969 229.667969 95.292969 Z M 229.667969 95.292969 " fill-opacity="1" fill-rule="nonzero"/><path fill="#ffffff" d="M 259.378906 112.257812 L 229.667969 112.257812 C 227.53125 112.257812 225.59375 111.417969 224.152344 110.054688 L 264.898438 110.054688 C 263.457031 111.417969 261.515625 112.257812 259.378906 112.257812 Z M 259.378906 112.257812 " fill-opacity="1" fill-rule="nonzero"/><g clip-path="url(#9c3d480028)"><path fill="#ffffff" d="M 228.527344 92.132812 L 260.519531 92.132812 C 266.621094 92.132812 271.585938 97.097656 271.585938 103.199219 L 271.585938 104.355469 C 271.585938 110.457031 266.621094 115.421875 260.519531 115.421875 L 228.527344 115.421875 C 222.425781 115.421875 217.460938 110.457031 217.460938 104.355469 L 217.460938 103.199219 C 217.460938 97.097656 222.425781 92.132812 228.527344 92.132812 Z M 219.609375 104.210938 C 219.609375 109.757812 224.121094 114.269531 229.667969 114.269531 L 259.378906 114.269531 C 264.925781 114.269531 269.441406 109.757812 269.441406 104.210938 L 269.441406 103.34375 C 269.441406 97.796875 264.925781 93.28125 259.378906 93.28125 L 229.667969 93.28125 C 224.121094 93.28125 219.609375 97.796875 219.609375 103.34375 Z M 219.609375 104.210938 " fill-opacity="1" fill-rule="nonzero"/></g><path fill="#ffffff" d="M 273.734375 48.589844 L 263.203125 75.777344 L 263.203125 71.261719 L 273.351562 41.410156 C 276.03125 40.941406 278.683594 40.253906 281.242188 39.363281 C 288.214844 36.929688 294.578125 33.007812 300.15625 27.695312 L 305.285156 25.964844 L 306.496094 28.953125 L 303.136719 32.359375 L 279.566406 47.949219 L 274.671875 47.949219 C 274.253906 47.949219 273.882812 48.203125 273.734375 48.589844 Z M 278.210938 46.753906 C 279.125 46.753906 279.871094 46 279.871094 45.070312 C 279.871094 44.140625 279.125 43.386719 278.210938 43.386719 C 277.292969 43.386719 276.550781 44.140625 276.550781 45.070312 C 276.550781 46 277.292969 46.753906 278.210938 46.753906 Z M 278.210938 46.753906 " fill-opacity="1" fill-rule="nonzero"/><path fill="#ffffff" d="M 266.457031 99.511719 C 267.078125 100.652344 267.429688 101.957031 267.429688 103.34375 L 267.429688 104.210938 C 267.429688 105.597656 267.078125 106.902344 266.457031 108.042969 L 222.59375 108.042969 C 221.972656 106.902344 221.621094 105.597656 221.621094 104.210938 L 221.621094 103.34375 C 221.621094 101.957031 221.972656 100.652344 222.59375 99.511719 Z M 261.15625 105.882812 C 262.304688 105.882812 263.238281 104.941406 263.238281 103.777344 C 263.238281 102.613281 262.304688 101.667969 261.15625 101.667969 C 260.007812 101.667969 259.078125 102.609375 259.078125 103.777344 C 259.078125 104.941406 260.007812 105.882812 261.15625 105.882812 Z M 244.523438 105.882812 C 245.671875 105.882812 246.601562 104.941406 246.601562 103.777344 C 246.601562 102.613281 245.671875 101.667969 244.523438 101.667969 C 243.375 101.667969 242.445312 102.609375 242.445312 103.777344 C 242.445312 104.941406 243.375 105.882812 244.523438 105.882812 Z M 227.890625 105.882812 C 229.039062 105.882812 229.96875 104.941406 229.96875 103.777344 C 229.96875 102.613281 229.039062 101.667969 227.890625 101.667969 C 226.742188 101.667969 225.8125 102.609375 225.8125 103.777344 C 225.8125 104.941406 226.742188 105.882812 227.890625 105.882812 Z M 227.890625 105.882812 " fill-opacity="1" fill-rule="nonzero"/><g clip-path="url(#3cf36ddbe4)"><path fill="#ffffff" d="M 306.410156 15.003906 C 306.953125 14.648438 308.054688 14.765625 308.957031 15.570312 C 309.492188 16.050781 310.101562 16.386719 310.675781 16.679688 C 312.398438 17.550781 314.394531 17.859375 316.457031 17.574219 C 317.371094 17.445312 318.199219 17.628906 318.703125 18.078125 C 319.214844 18.53125 319.511719 19.351562 319.5 20.277344 C 319.480469 21.644531 318.820312 22.976562 317.683594 23.9375 C 317.679688 23.941406 317.675781 23.945312 317.667969 23.953125 C 317.65625 23.964844 317.648438 23.976562 317.636719 23.988281 C 317.5625 24.0625 317.5 24.144531 317.453125 24.234375 C 317.441406 24.253906 317.429688 24.269531 317.421875 24.289062 C 317.375 24.390625 317.347656 24.5 317.335938 24.613281 C 317.332031 24.636719 317.335938 24.65625 317.332031 24.679688 C 317.332031 24.71875 317.328125 24.757812 317.332031 24.796875 C 317.59375 27.609375 317.945312 30.46875 318.378906 33.289062 C 319.699219 41.917969 321.765625 50.523438 324.359375 58.265625 L 321.109375 59.59375 L 308.609375 28.804688 C 308.609375 28.804688 308.609375 28.800781 308.605469 28.800781 L 306.867188 24.511719 L 306.867188 23.417969 C 306.867188 21.242188 306.355469 19.183594 305.855469 17.453125 C 305.542969 16.375 305.902344 15.339844 306.410156 15.003906 Z M 316.542969 22.195312 C 317.460938 22.195312 318.203125 21.441406 318.203125 20.511719 C 318.203125 19.582031 317.460938 18.832031 316.542969 18.832031 C 315.625 18.832031 314.882812 19.582031 314.882812 20.511719 C 314.882812 21.441406 315.625 22.195312 316.542969 22.195312 Z M 308.878906 20.511719 C 309.796875 20.511719 310.539062 19.757812 310.539062 18.832031 C 310.539062 17.902344 309.796875 17.148438 308.878906 17.148438 C 307.960938 17.148438 307.21875 17.902344 307.21875 18.832031 C 307.21875 19.757812 307.960938 20.511719 308.878906 20.511719 Z M 308.878906 20.511719 " fill-opacity="1" fill-rule="nonzero"/></g><g clip-path="url(#a8b821cad0)"><g clip-path="url(#307c2cf6b1)"><path fill="#48a0dc" d="M 34.699219 126.890625 L 340.222656 126.890625 L 340.222656 172.285156 L 34.699219 172.285156 Z M 34.699219 126.890625 " fill-opacity="1" fill-rule="nonzero"/></g></g><g clip-path="url(#ea50df338e)"><g clip-path="url(#6126d2ce7d)"><path fill="#48a0dc" d="M 278.832031 80.152344 L 313.832031 80.152344 L 313.832031 115.15625 L 278.832031 115.15625 Z M 278.832031 80.152344 " fill-opacity="1" fill-rule="nonzero"/></g></g><g clip-path="url(#d04871a8f0)"><g clip-path="url(#b3c1272b0c)"><path fill="#48a0dc" d="M 151.179688 55.644531 L 168.851562 55.644531 L 168.851562 73.316406 L 151.179688 73.316406 Z M 151.179688 55.644531 " fill-opacity="1" fill-rule="nonzero"/></g></g><g fill="#ffffff" fill-opacity="1"><g transform="translate(34.699525, 113.003121)"><g><path d="M 8.78125 -32.96875 L 8.78125 -5.59375 L 17.875 -5.59375 L 17.875 0 L 2.359375 0 L 2.359375 -32.96875 Z M 8.78125 -32.96875 "/></g></g></g><g fill="#ffffff" fill-opacity="1"><g transform="translate(55.939386, 113.003121)"><g><path d="M 8.78125 -32.96875 L 8.78125 0 L 2.359375 0 L 2.359375 -32.96875 Z M 8.78125 -32.96875 "/></g></g></g><g fill="#ffffff" fill-opacity="1"><g transform="translate(70.711973, 113.003121)"><g><path d="M 24.390625 -24.21875 C 23.492188 -25.320312 22.394531 -26.179688 21.09375 -26.796875 C 19.800781 -27.410156 18.484375 -27.71875 17.140625 -27.71875 C 14.335938 -27.71875 12.019531 -26.609375 10.1875 -24.390625 C 8.351562 -22.179688 7.4375 -19.5 7.4375 -16.34375 C 7.4375 -13.257812 8.367188 -10.640625 10.234375 -8.484375 C 12.097656 -6.328125 14.382812 -5.25 17.09375 -5.25 C 18.488281 -5.25 19.828125 -5.578125 21.109375 -6.234375 C 22.398438 -6.890625 23.492188 -7.726562 24.390625 -8.75 L 24.390625 -1.09375 C 23.171875 -0.507812 21.957031 -0.0351562 20.75 0.328125 C 19.539062 0.691406 18.265625 0.875 16.921875 0.875 C 14.003906 0.875 11.328125 0.132812 8.890625 -1.34375 C 6.460938 -2.832031 4.503906 -4.914062 3.015625 -7.59375 C 1.523438 -10.28125 0.78125 -13.15625 0.78125 -16.21875 C 0.78125 -19.425781 1.492188 -22.390625 2.921875 -25.109375 C 4.359375 -27.835938 6.320312 -29.972656 8.8125 -31.515625 C 11.300781 -33.066406 14.046875 -33.84375 17.046875 -33.84375 C 18.359375 -33.84375 19.632812 -33.671875 20.875 -33.328125 C 22.113281 -32.992188 23.285156 -32.523438 24.390625 -31.921875 Z M 24.390625 -24.21875 "/></g></g></g><g fill="#ffffff" fill-opacity="1"><g transform="translate(100.647723, 113.003121)"><g><path d="M 19.40625 -32.96875 L 19.40625 -27.375 L 8.78125 -27.375 L 8.78125 -20.109375 L 19.015625 -20.109375 L 19.015625 -14.515625 L 8.78125 -14.515625 L 8.78125 -5.59375 L 19.40625 -5.59375 L 19.40625 0 L 2.359375 0 L 2.359375 -32.96875 Z M 19.40625 -32.96875 "/></g></g></g><g fill="#ffffff" fill-opacity="1"><g transform="translate(125.645599, 113.003121)"><g><path d="M 11.234375 -32.96875 C 14.703125 -32.96875 17.375 -32.113281 19.25 -30.40625 C 21.132812 -28.695312 22.078125 -26.242188 22.078125 -23.046875 C 22.078125 -20.710938 21.441406 -18.675781 20.171875 -16.9375 C 18.910156 -15.207031 17.300781 -14.195312 15.34375 -13.90625 L 24.65625 0 L 16.875 0 L 8.875 -13.296875 L 8.78125 -13.296875 L 8.78125 0 L 2.359375 0 L 2.359375 -32.96875 Z M 8.78125 -17.796875 L 9.484375 -17.796875 C 11.703125 -17.796875 13.285156 -18.203125 14.234375 -19.015625 C 15.179688 -19.828125 15.65625 -21.109375 15.65625 -22.859375 C 15.65625 -24.578125 15.1875 -25.816406 14.25 -26.578125 C 13.320312 -27.335938 11.765625 -27.71875 9.578125 -27.71875 L 8.78125 -27.71875 Z M 8.78125 -17.796875 "/></g></g></g><g fill="#ffffff" fill-opacity="1"><g transform="translate(153.702348, 113.003121)"><g><path d="M 8.78125 -32.96875 L 8.78125 0 L 2.359375 0 L 2.359375 -32.96875 Z M 8.78125 -32.96875 "/></g></g></g><g fill="#ffffff" fill-opacity="1"><g transform="translate(168.474941, 113.003121)"><g><path d="M 17.4375 -33.84375 L 29.953125 0 L 23.078125 0 L 20.546875 -6.953125 L 9.09375 -6.953125 L 6.390625 0 L -0.390625 0 L 12.453125 -33.84375 Z M 10.9375 -12.203125 L 18.75 -12.203125 L 14.640625 -24.171875 L 14.5625 -24.171875 Z M 10.9375 -12.203125 "/></g></g></g><g fill="#000000" fill-opacity="1"><g transform="translate(49.312228, 160.645225)"><g><path d="M 20.625 -20.484375 C 19.863281 -21.421875 18.929688 -22.144531 17.828125 -22.65625 C 16.734375 -23.175781 15.617188 -23.4375 14.484375 -23.4375 C 12.117188 -23.4375 10.160156 -22.5 8.609375 -20.625 C 7.054688 -18.75 6.28125 -16.484375 6.28125 -13.828125 C 6.28125 -11.210938 7.066406 -8.992188 8.640625 -7.171875 C 10.222656 -5.347656 12.160156 -4.4375 14.453125 -4.4375 C 15.640625 -4.4375 16.773438 -4.710938 17.859375 -5.265625 C 18.941406 -5.816406 19.863281 -6.523438 20.625 -7.390625 L 20.625 -0.921875 C 19.59375 -0.429688 18.5625 -0.0351562 17.53125 0.265625 C 16.507812 0.578125 15.4375 0.734375 14.3125 0.734375 C 11.84375 0.734375 9.578125 0.109375 7.515625 -1.140625 C 5.460938 -2.398438 3.804688 -4.160156 2.546875 -6.421875 C 1.296875 -8.691406 0.671875 -11.125 0.671875 -13.71875 C 0.671875 -16.425781 1.269531 -18.929688 2.46875 -21.234375 C 3.675781 -23.535156 5.332031 -25.335938 7.4375 -26.640625 C 9.550781 -27.953125 11.878906 -28.609375 14.421875 -28.609375 C 15.523438 -28.609375 16.597656 -28.46875 17.640625 -28.1875 C 18.691406 -27.90625 19.6875 -27.503906 20.625 -26.984375 Z M 20.625 -20.484375 "/></g></g></g><g fill="#000000" fill-opacity="1"><g transform="translate(74.218628, 160.645225)"><g><path d="M 0.671875 -13.96875 C 0.671875 -16.78125 1.253906 -19.296875 2.421875 -21.515625 C 3.585938 -23.734375 5.222656 -25.46875 7.328125 -26.71875 C 9.441406 -27.976562 11.816406 -28.609375 14.453125 -28.609375 C 17.140625 -28.609375 19.539062 -27.960938 21.65625 -26.671875 C 23.78125 -25.378906 25.410156 -23.617188 26.546875 -21.390625 C 27.679688 -19.160156 28.25 -16.6875 28.25 -13.96875 C 28.25 -11.132812 27.660156 -8.597656 26.484375 -6.359375 C 25.316406 -4.117188 23.691406 -2.375 21.609375 -1.125 C 19.523438 0.113281 17.140625 0.734375 14.453125 0.734375 C 11.816406 0.734375 9.457031 0.125 7.375 -1.09375 C 5.289062 -2.3125 3.648438 -4.050781 2.453125 -6.3125 C 1.265625 -8.582031 0.671875 -11.132812 0.671875 -13.96875 Z M 14.421875 -23.25 C 12.097656 -23.25 10.160156 -22.363281 8.609375 -20.59375 C 7.054688 -18.820312 6.28125 -16.691406 6.28125 -14.203125 C 6.28125 -11.410156 7.015625 -9.113281 8.484375 -7.3125 C 9.953125 -5.519531 11.941406 -4.625 14.453125 -4.625 C 16.960938 -4.625 18.953125 -5.519531 20.421875 -7.3125 C 21.890625 -9.113281 22.625 -11.410156 22.625 -14.203125 C 22.625 -16.710938 21.847656 -18.847656 20.296875 -20.609375 C 18.742188 -22.367188 16.785156 -23.25 14.421875 -23.25 Z M 14.421875 -23.25 "/></g></g></g><g fill="#000000" fill-opacity="1"><g transform="translate(105.813003, 160.645225)"><g><path d="M 5.921875 -28.609375 L 20.59375 -9.125 L 20.671875 -9.125 L 20.671875 -27.875 L 26.09375 -27.875 L 26.09375 0.546875 L 22.1875 0.546875 L 7.5 -18.921875 L 7.4375 -18.921875 L 7.4375 0 L 2 0 L 2 -28.609375 Z M 5.921875 -28.609375 "/></g></g></g><g fill="#000000" fill-opacity="1"><g transform="translate(136.55753, 160.645225)"><g><path d="M 16.671875 -27.875 L 16.671875 -23.140625 L 11.046875 -23.140625 L 11.046875 0 L 5.625 0 L 5.625 -23.140625 L 0 -23.140625 L 0 -27.875 Z M 16.671875 -27.875 "/></g></g></g><g fill="#000000" fill-opacity="1"><g transform="translate(155.921406, 160.645225)"><g><path d="M 9.5 -27.875 C 12.4375 -27.875 14.695312 -27.148438 16.28125 -25.703125 C 17.875 -24.265625 18.671875 -22.191406 18.671875 -19.484375 C 18.671875 -17.515625 18.132812 -15.796875 17.0625 -14.328125 C 15.988281 -12.859375 14.625 -12 12.96875 -11.75 L 20.84375 0 L 14.265625 0 L 7.5 -11.234375 L 7.4375 -11.234375 L 7.4375 0 L 2 0 L 2 -27.875 Z M 7.4375 -15.046875 L 8.015625 -15.046875 C 9.890625 -15.046875 11.226562 -15.390625 12.03125 -16.078125 C 12.832031 -16.765625 13.234375 -17.847656 13.234375 -19.328125 C 13.234375 -20.785156 12.835938 -21.832031 12.046875 -22.46875 C 11.265625 -23.113281 9.945312 -23.4375 8.09375 -23.4375 L 7.4375 -23.4375 Z M 7.4375 -15.046875 "/></g></g></g><g fill="#000000" fill-opacity="1"><g transform="translate(179.23895, 160.645225)"><g><path d="M 7.28125 -27.875 L 7.28125 -12.015625 C 7.28125 -9.304688 7.675781 -7.289062 8.46875 -5.96875 C 9.257812 -4.65625 10.503906 -4 12.203125 -4 C 13.921875 -4 15.164062 -4.648438 15.9375 -5.953125 C 16.71875 -7.253906 17.109375 -9.25 17.109375 -11.9375 L 17.109375 -27.875 L 22.546875 -27.875 L 22.546875 -11.046875 C 22.546875 -7.304688 21.664062 -4.40625 19.90625 -2.34375 C 18.144531 -0.289062 15.578125 0.734375 12.203125 0.734375 C 8.828125 0.734375 6.253906 -0.296875 4.484375 -2.359375 C 2.722656 -4.429688 1.84375 -7.328125 1.84375 -11.046875 L 1.84375 -27.875 Z M 7.28125 -27.875 "/></g></g></g><g fill="#000000" fill-opacity="1"><g transform="translate(206.325414, 160.645225)"><g><path d="M 20.625 -20.484375 C 19.863281 -21.421875 18.929688 -22.144531 17.828125 -22.65625 C 16.734375 -23.175781 15.617188 -23.4375 14.484375 -23.4375 C 12.117188 -23.4375 10.160156 -22.5 8.609375 -20.625 C 7.054688 -18.75 6.28125 -16.484375 6.28125 -13.828125 C 6.28125 -11.210938 7.066406 -8.992188 8.640625 -7.171875 C 10.222656 -5.347656 12.160156 -4.4375 14.453125 -4.4375 C 15.640625 -4.4375 16.773438 -4.710938 17.859375 -5.265625 C 18.941406 -5.816406 19.863281 -6.523438 20.625 -7.390625 L 20.625 -0.921875 C 19.59375 -0.429688 18.5625 -0.0351562 17.53125 0.265625 C 16.507812 0.578125 15.4375 0.734375 14.3125 0.734375 C 11.84375 0.734375 9.578125 0.109375 7.515625 -1.140625 C 5.460938 -2.398438 3.804688 -4.160156 2.546875 -6.421875 C 1.296875 -8.691406 0.671875 -11.125 0.671875 -13.71875 C 0.671875 -16.425781 1.269531 -18.929688 2.46875 -21.234375 C 3.675781 -23.535156 5.332031 -25.335938 7.4375 -26.640625 C 9.550781 -27.953125 11.878906 -28.609375 14.421875 -28.609375 C 15.523438 -28.609375 16.597656 -28.46875 17.640625 -28.1875 C 18.691406 -27.90625 19.6875 -27.503906 20.625 -26.984375 Z M 20.625 -20.484375 "/></g></g></g><g fill="#000000" fill-opacity="1"><g transform="translate(231.231814, 160.645225)"><g><path d="M 16.671875 -27.875 L 16.671875 -23.140625 L 11.046875 -23.140625 L 11.046875 0 L 5.625 0 L 5.625 -23.140625 L 0 -23.140625 L 0 -27.875 Z M 16.671875 -27.875 "/></g></g></g><g fill="#000000" fill-opacity="1"><g transform="translate(250.59569, 160.645225)"><g><path d="M 7.4375 -27.875 L 7.4375 0 L 2 0 L 2 -27.875 Z M 7.4375 -27.875 "/></g></g></g><g fill="#000000" fill-opacity="1"><g transform="translate(262.680384, 160.645225)"><g><path d="M 0.671875 -13.96875 C 0.671875 -16.78125 1.253906 -19.296875 2.421875 -21.515625 C 3.585938 -23.734375 5.222656 -25.46875 7.328125 -26.71875 C 9.441406 -27.976562 11.816406 -28.609375 14.453125 -28.609375 C 17.140625 -28.609375 19.539062 -27.960938 21.65625 -26.671875 C 23.78125 -25.378906 25.410156 -23.617188 26.546875 -21.390625 C 27.679688 -19.160156 28.25 -16.6875 28.25 -13.96875 C 28.25 -11.132812 27.660156 -8.597656 26.484375 -6.359375 C 25.316406 -4.117188 23.691406 -2.375 21.609375 -1.125 C 19.523438 0.113281 17.140625 0.734375 14.453125 0.734375 C 11.816406 0.734375 9.457031 0.125 7.375 -1.09375 C 5.289062 -2.3125 3.648438 -4.050781 2.453125 -6.3125 C 1.265625 -8.582031 0.671875 -11.132812 0.671875 -13.96875 Z M 14.421875 -23.25 C 12.097656 -23.25 10.160156 -22.363281 8.609375 -20.59375 C 7.054688 -18.820312 6.28125 -16.691406 6.28125 -14.203125 C 6.28125 -11.410156 7.015625 -9.113281 8.484375 -7.3125 C 9.953125 -5.519531 11.941406 -4.625 14.453125 -4.625 C 16.960938 -4.625 18.953125 -5.519531 20.421875 -7.3125 C 21.890625 -9.113281 22.625 -11.410156 22.625 -14.203125 C 22.625 -16.710938 21.847656 -18.847656 20.296875 -20.609375 C 18.742188 -22.367188 16.785156 -23.25 14.421875 -23.25 Z M 14.421875 -23.25 "/></g></g></g><g fill="#000000" fill-opacity="1"><g transform="translate(294.274758, 160.645225)"><g><path d="M 5.921875 -28.609375 L 20.59375 -9.125 L 20.671875 -9.125 L 20.671875 -27.875 L 26.09375 -27.875 L 26.09375 0.546875 L 22.1875 0.546875 L 7.5 -18.921875 L 7.4375 -18.921875 L 7.4375 0 L 2 0 L 2 -28.609375 Z M 5.921875 -28.609375 "/></g></g></g></svg>