<svg xmlns="http://www.w3.org/2000/svg" version="1.1" xmlns:xlink="http://www.w3.org/1999/xlink" width="512" height="512" x="0" y="0" viewBox="0 0 512 512" style="enable-background:new 0 0 512 512" xml:space="preserve" class=""><g><path fill="#ffffff" d="M434.5 324.2c-9.4-8.3-28.3-22.4-38.7-30.1-11.8-8.7-26-13.4-40.2-13.4s-27.1 4.5-38.1 13c-5.9 4.5-14.1 11.5-20 16.5-1.8 1.5-4.1 2.4-6.5 2.4-1.6 0-3.2-.4-4.6-1.1-18.4-9.3-35.2-21.4-49.8-36.1-14.6-14.6-26.8-31.4-36.1-49.8-1.9-3.7-1.4-8 1.3-11.1 7.3-8.5 12.9-15.2 16.5-20 17.5-22.7 17.3-54.2-.4-78.3-7.7-10.4-21.8-29.3-30.1-38.7-10.9-12.3-24.9-18.8-40.4-18.8-10.9 0-21.8 3.3-31.5 9.5-7.9 5.1-17.1 12.7-26.5 22.1-17.9 17.9-31 50.3-30.6 75.4.6 37 6.6 64.5 20 91.9 14.5 29.6 38.2 60 76.9 98.8 38.7 38.7 69.2 62.4 98.7 76.9 27.5 13.4 54.9 19.4 91.9 20h1.1c24.9 0 56.8-13.2 74.2-30.7 9.4-9.4 17.1-18.6 22.1-26.5 13.1-20.2 15.2-50.3-9.2-71.9zm.9 66.6c-4.2 6.6-11.1 15.1-20.8 24.8-16.5 16.5-46.5 28.1-68.1 27.7-64.5-1-108.1-18.3-183.8-94s-93-119.2-94-183.8c-.3-21.7 11.2-51.6 27.7-68.1 9.7-9.7 18.2-16.6 24.8-20.8 17.4-11.1 41.7-12.1 59 7.6 7.9 9 21.7 27.4 29.5 38 14.1 19.1 16.3 46 .6 66.3-4.3 5.6-10.9 13.4-16.2 19.6s-6.3 14.9-2.6 22.1c9.8 19.5 22.7 37.1 37.9 52.4s32.9 28.1 52.4 37.9c7.2 3.6 16 2.7 22.1-2.6s14-11.9 19.6-16.2c20.3-15.7 47.1-13.5 66.3.6 10.6 7.8 29 21.6 38 29.5 19.7 17.3 18.7 41.6 7.6 59z" opacity="1" data-original="#0073ff" class=""></path><path fill="#ffffff" d="M385.9 158.6c-1.5-1.7-3.5-2.8-5.7-3.1 4.7-8.3 7.3-17.9 7.3-28.1 0-31.9-26-57.9-57.9-57.9s-57.9 26-57.9 57.9c0 10.2 2.6 19.8 7.3 28.1-2.2.4-4.2 1.5-5.7 3.1-12.6 14-19.6 32-19.6 50.9V244c0 11 9 20 20 20h111.8c11 0 20-9 20-20v-34.5c0-18.8-7-36.9-19.6-50.9zm-56.3-79.1c26.4 0 47.9 21.4 47.9 47.9s-21.4 47.9-47.9 47.9-47.9-21.4-47.9-47.9 21.5-47.9 47.9-47.9zM395.5 244c0 5.5-4.5 10-10 10H273.7c-5.5 0-10-4.5-10-10v-34.5c0-17 6.4-32.5 17-44.2 11.3 14.6 29 23.9 48.8 23.9s37.5-9.4 48.9-23.9c10.6 11.7 17 27.2 17 44.2z" opacity="1" data-original="#76a4ff" class=""></path></g></svg>