<svg xmlns="http://www.w3.org/2000/svg" version="1.1" xmlns:xlink="http://www.w3.org/1999/xlink" width="512" height="512" x="0" y="0" viewBox="0 0 48 48" style="enable-background:new 0 0 512 512" xml:space="preserve" class=""><g><g fill="#000" fill-rule="evenodd" clip-rule="evenodd"><path d="M9 10a3 3 0 0 0-3 3v22a3 3 0 0 0 3 3h30a3 3 0 0 0 3-3V18a1 1 0 1 1 2 0v17a5 5 0 0 1-5 5H9a5 5 0 0 1-5-5V13a5 5 0 0 1 5-5h22a1 1 0 1 1 0 2z" fill="#ffffff" opacity="1" data-original="#000000" class=""></path><path d="M13.293 16.293a1 1 0 0 1 1.414 0l8.586 8.586a1 1 0 0 0 1.414 0l8.586-8.586a1 1 0 0 1 1.414 1.414l-8.586 8.586a3 3 0 0 1-4.242 0l-8.586-8.586a1 1 0 0 1 0-1.414zM40 11a2 2 0 1 0 0-4 2 2 0 0 0 0 4zm0 2a4 4 0 1 0 0-8 4 4 0 0 0 0 8z" fill="#ffffff" opacity="1" data-original="#000000" class=""></path></g></g></svg>