<svg xmlns="http://www.w3.org/2000/svg" version="1.1" xmlns:xlink="http://www.w3.org/1999/xlink" width="512" height="512" x="0" y="0" viewBox="0 0 32 32" style="enable-background:new 0 0 512 512" xml:space="preserve" fill-rule="evenodd" class=""><g><path d="m13.715 28.908.005.005a2.971 2.971 0 0 0 4.56.001l.005-.006c2.639-3.203 7.632-10.227 7.632-16.991C25.917 6.444 21.474 2 16 2s-9.917 4.444-9.917 9.917c0 6.764 4.993 13.789 7.632 16.991zM16 7.5c-2.484 0-4.5 2.016-4.5 4.5s2.016 4.5 4.5 4.5 4.5-2.016 4.5-4.5-2.016-4.5-4.5-4.5zm0 2a2.5 2.5 0 0 1 0 5 2.5 2.5 0 0 1 0-5z" fill="#ffffff" opacity="1" data-original="#000000" class=""></path></g></svg>